<?xml version="1.0" encoding="UTF-8"?>
<!DOCTYPE svg PUBLIC "-//W3C//DTD SVG 1.1//EN" "http://www.w3.org/Graphics/SVG/1.1/DTD/svg11.dtd">
<!-- Creator: CorelDRAW 2019 (64-Bit) -->
<svg xmlns="http://www.w3.org/2000/svg" xml:space="preserve" width="33.8667mm" height="23.5033mm" version="1.1" style="shape-rendering:geometricPrecision; text-rendering:geometricPrecision; image-rendering:optimizeQuality; fill-rule:evenodd; clip-rule:evenodd"
viewBox="0 0 105.26 73.05"
 xmlns:xlink="http://www.w3.org/1999/xlink">
 <defs>
  <style type="text/css">
   <![CDATA[
    .fil0 {fill:#D95900}
   ]]>
  </style>
 </defs>
 <g id="Capa_x0020_1">
  <metadata id="CorelCorpID_0Corel-Layer"/>
  <path class="fil0" d="M23.91 51.9l-5.01 -0 -5.38 0 -0 19.99c0.18,0.89 0.52,0.58 2.69,0.57 1.15,-0 2.31,0 3.46,0l0 -6.73c6.68,0 3.46,0 6.34,-1.92 -0.13,1.58 -2.11,7.06 -2.11,8.65l6.15 0c0.07,-0.78 0.57,-2.22 0.77,-3.08l2.31 0c0.05,0.56 0.58,2.68 0.77,3.08l4.63 -0.02c0.9,0.05 0.74,-0.15 0.94,0.6 0.18,-0.23 0.12,0.22 0.19,-0.58l5.38 0 0 -6.73 1.54 0 0 6.73c3.59,0 7.17,0 10.76,0 1.39,0 4.18,0.42 5.15,-0.23 0.38,-0.25 2.48,-2.46 2.73,-2.84 2.12,1.42 2.22,3 3.83,3.09l4.83 -0.01c2.95,0.04 1.56,-0.98 4.41,-2.89 2.55,1.71 1.55,2.92 4.41,2.89 1.22,-0.01 2.44,-0.01 3.66,-0 2.64,0.02 1.51,0.17 4.66,-2.83 0.51,-0.49 0.64,-0.43 0.72,-1.2l-0.02 -5.57c-0.17,-0.94 -1.23,-1.41 -1.72,-2.13 2.3,0 1.7,0.42 1.74,-4.05 0.02,-2.3 -0.46,-1.26 -2.45,-3.7 -1.15,-1.41 -0.52,-1.1 -2.94,-1.1l-5 0.01 -3.97 2.11c-1.7,-0.92 -1.27,-2.09 -3.13,-2.13 -1.72,-0.03 -3.52,0.02 -5.25,0.02 0.31,-0.69 1.64,-2.29 2.15,-3.09 4.22,-6.65 3.52,-9.57 4.43,-10.98 1.46,0.77 2.42,3.79 2.43,3.75 0.01,-0.03 0.04,0.08 0.07,0.12 0.66,-0.81 1.53,-4.7 1.78,-6.08 1.21,-6.64 -0.21,-13.93 -3.65,-19.27 0.4,-0.79 2.92,-2.95 3.03,-6.14 0.33,-9.59 -10.37,-12.07 -14,-5.2 -2.71,-0.46 -3.42,-3.3 -9.73,-1.62 -4.35,1.16 -2.02,0.91 -6.24,-0.13 -5.83,-1.44 -6.71,1.26 -9.28,1.75 -5.15,-9.71 -20.6,0.47 -10.94,11.34 -2.37,3.6 -3.27,6.75 -3.94,11.98 -0.47,3.64 0.52,10.84 2.09,13.54 0.86,-1.73 0.76,-3.26 2.64,-4.07 0.39,3.08 1.75,6.62 2.95,8.86 0.98,1.85 3.51,5.6 4.92,6.59 -0.01,-0.83 -0.19,-1.47 -0.19,-2.49 -0,-1.09 0.18,-1.61 0.2,-2.52 0.78,0.24 3.24,3.06 3.65,3.67l-2.41 0 0.02 5.9c-0.65,0.15 -1.48,-0.13 -2.16,-0.34 -1.18,-0.36 -0.99,-1.08 -1.66,-3.76 -0.58,-2.33 0.19,-1.79 -5.77,-1.8l-0.71 2.34c-1.55,-0.24 -3.28,-1.74 -4.79,-2.34zm15.55 19.42c0,0.98 0.95,0.58 4.42,0.58 0.51,0 0.58,-0.07 0.58,-0.58l0 -6.34 2.69 0 0.06 6.84c1.72,0.23 11.82,0.08 14.35,0.08 0.71,0 2.98,-2.7 3.65,-3.25 1.08,0.66 2.64,3.25 4.04,3.25 5.76,0 5.12,0.55 7.16,-1.49 0.63,-0.63 1.16,-1.32 1.87,-1.76 0.67,0.54 2.98,3.25 3.65,3.25 6.78,0 5.32,0.54 7.45,-1.58 2.11,-2.11 1.58,-0.63 1.58,-7.26 0,-0.66 -2.22,-2.4 -2.67,-3.06l2.67 0c0,-5.31 0.44,-4.09 -1.49,-6.03 -2.05,-2.05 -0.82,-1.49 -7.35,-1.49 -1.1,0 -2.46,1.98 -3.8,3.24 -0.85,-0.53 -2.89,-3.24 -3.7,-3.24l-5.77 0c-0.76,0 -2.88,2.74 -3.69,3.26 -0.47,-0.54 -2.78,-3.26 -3.42,-3.26l-9.22 0 -0 3.45c-0.75,-0.52 -3.16,-3.45 -3.84,-3.45l-9.22 0 0 18.84zm-10.52 -38.1c0.38,-0.71 0.87,-2.86 1.23,-3.87 0.32,-0.89 1.46,-2.9 2.18,-3.19 0.26,0.43 -0.35,5.12 0.44,8.96 0.44,2.11 1.4,5.85 2.73,6.88 0.04,-0.95 -0.14,-2.09 -0.09,-3.17 0.05,-1.04 0.31,-2.05 0.42,-3.03 0.4,0.63 0.7,1.92 1.03,2.73 0.41,1.03 0.71,1.78 1.26,2.78 0.8,1.44 2.34,3.95 3.43,4.69 -0.27,-1.09 -2.05,-4.39 -3.01,-8 -0.35,-1.32 -1.71,-8.04 -1.48,-9.13 0.82,1.12 0.56,1.87 1.7,2.34 -0.2,-1.68 -0.57,-3.93 0.09,-5.35 0.57,0.94 0.42,2.26 2.13,5.08 0.73,1.21 2.06,3.37 3.27,4.05 -0.56,-2.98 -5,-12.42 -1.22,-17.35 0.47,-0.62 1.35,-1.01 1.58,-1.64 -1.92,-0.11 -2.74,0.21 -4.4,0.38 1.01,-2.3 2.23,-1.7 3.25,-2.34 -0.4,-0.63 -0.91,-0.85 -1.14,-1.71 1.06,0.71 1.76,1.33 3.26,1.9l0.15 -0.53 1.18 0.56c1.1,-0.74 0.57,-0.6 2.13,-1.18 0.96,-0.36 1.08,-0.97 1.72,-1.61l-0.39 1.3 4.43 -0.05c0.01,-0.66 -0.06,-0.37 0.17,-0.78 0.6,1.31 0.88,0.69 3.29,2.28l1.24 -0.44 0.1 0.45c1.32,-0.37 2.26,-1.24 3.24,-1.9 -0.23,0.97 -0.77,1.04 -1.14,1.9 1.66,0.03 2.89,0.86 3.29,2.14 -1.57,-0.11 -2.57,-0.64 -4.34,-0.31 0.21,0.92 5.17,2.22 1.81,14.11 -0.42,1.5 -1.32,3.41 -1.58,4.84 0.9,-0.33 1.19,-1.09 1.85,-1.87 0.62,-0.73 0.99,-1.32 1.48,-2.18 1.72,-3.03 1.58,-4.58 2.21,-5.28 0.27,1.82 0.15,3.73 0.03,5.64 0.54,-0.32 0.65,-0.49 0.98,-1.17 0.25,-0.51 0.47,-0.93 0.74,-1.44 0.31,3.09 -1.66,10.38 -2.95,13.64 -0.52,1.3 -1.47,2.82 -1.73,3.93 1.92,-1.96 3.66,-4.83 4.7,-7.5 0.32,-0.82 0.8,-2.43 1.17,-2.99 0.29,2.18 0.65,3.62 0.31,6.14 0.92,-0.61 1.4,-2.17 1.76,-3.17 1.83,-5.12 1.4,-7.97 1.24,-13 2.22,1.52 3.03,6.15 3.57,7.23 1.01,-2.15 -0.25,-9.89 -0.78,-12.14 -1.54,-6.52 -6.03,-12.36 -11.8,-15.3 -1.57,-0.8 -3,-1.56 -5.04,-1.63 -1.48,-0.05 -4.56,0.62 -5.32,1.47 0.29,0.78 0.07,0.11 0.97,0.56 -0.68,0.05 -1.27,0.32 -1.76,0.3 -0.36,-0.01 -1.23,-0.28 -1.67,-0.36l1.06 -0.23c-0.13,-0.6 -0.07,-0.53 -0.78,-0.81l-4.24 -0.92c-1.89,-0.07 -3.92,0.83 -5.25,1.55 -5.92,3.22 -10.32,8.57 -11.9,15.38 -0.66,2.83 -1.68,9.47 -0.82,12.35zm52.42 18.69l5 -0.01c0.21,-0.18 -0.07,0.03 0.32,-0.26 0.21,-0.16 0.28,-0.2 0.45,-0.32l2.42 -1.81c2.84,-2.22 4.75,-4.12 7.24,-6.6 0.59,-0.58 0.77,-0.97 1.34,-1.54l2.56 -3.01c0.78,-0.99 3.91,-5.35 4.51,-6.66 0.37,-0.81 -0.99,-2.69 -1.66,-3.72 -0.8,-1.22 -1.48,-2.1 -2.33,-3.24 -1.94,-2.6 -5.85,-6.87 -8.08,-8.83l-4.52 -3.74c-0.52,-0.42 -1.15,-0.84 -1.67,-1.21 -1.07,-0.76 -5.82,-3.93 -7.11,-4.23 0.34,1.26 0.38,1.71 0.38,3.27 3.78,1.92 9.35,6.21 12.16,8.99 2.81,2.78 7.77,7.83 9.53,11.39l-20.72 0 0 1.73 20.75 0c-0.7,1.57 -3.12,4.44 -4.31,5.87 -1.55,1.88 -3.16,3.47 -4.86,5.14 -1.77,1.74 -3.45,3.11 -5.49,4.7l-5.9 4.1zm-62.46 -0.01l5.01 0c-0.55,-0.57 -2.18,-1.48 -3.1,-2.1 -4.74,-3.21 -9.67,-7.55 -13.25,-11.94 -1.19,-1.46 -3.46,-4.1 -4.23,-5.76l20.75 0 0 -1.73 -20.75 0c0.34,-1.09 3.6,-5.17 4.46,-6.11 4.96,-5.44 10.42,-10.79 17.25,-14.26 0,-1.49 0.12,-2.06 0.38,-3.27 -1.44,0.33 -5.6,3.19 -7,4.15l-4.67 3.59c-0.3,0.25 -0.41,0.41 -0.68,0.67l-3.65 3.46c-2.83,2.83 -5.44,5.93 -7.64,9.27 -2.5,3.8 -2.35,3.09 0.27,7.04l3.62 4.83c1.65,1.78 2.05,2.44 4.04,4.42l2.89 2.69c2.74,2.67 4.47,3.47 6.29,5.05zm34.21 19.03l8.07 0c0.55,0 1.22,-0.93 1.59,-1.3 0.36,-0.36 1.3,-1.04 1.3,-1.59l0 -11.92c0,-0.68 -2.14,-2.88 -2.69,-2.88l-8.26 0 0 17.69zm13.07 -14.8l0 11.92c0,0.55 0.93,1.22 1.3,1.59 1.82,1.82 0.83,1.3 6.77,1.3 0.49,0 2.88,-2.4 2.88,-2.88l0 -11.92c0,-0.48 -2.18,-2.88 -2.88,-2.88 -5.48,0 -5.17,-0.56 -6.79,1.28 -0.36,0.41 -1.28,1.05 -1.28,1.61zm-51.89 14.99l0.01 0.76 4.77 -0.01 0.02 -6.9c5.48,0 4.25,0.46 6.2,-1.49 2.05,-2.05 1.49,-0.82 1.49,-7.35 0,-0.76 -2.55,-3.65 -3.65,-3.65l-8.84 0 0 18.65zm10.38 0.77l4.8 0 0.84 -3.03 2.81 -0.04c1.32,0 0.36,3.08 1.73,3.08l4.32 -0.05c0.06,-0.77 -1.96,-8.11 -2.37,-9.79 -0.42,-1.68 -0.82,-3.22 -1.25,-4.9 -0.17,-0.66 -0.96,-4.54 -1.47,-4.68l-3.84 0c-0.75,0 -0.52,0.16 -1.02,2.06 -0.2,0.77 -0.41,1.55 -0.65,2.42 -0.55,2.02 -3.88,13.89 -3.9,14.94zm15.57 -0.96l3.27 0 0 -6.73 4.37 0.04 0.05 6.69 3.27 0 0 -7.5c0,-0.49 -0.65,-0.89 -0.96,-1.35 1.48,-0.99 0.96,-1.86 0.96,-5.96 0,-0.49 -2.4,-2.88 -2.88,-2.88l-8.07 0 0 17.69zm-25.37 0l3.27 0 0.04 -6.68c1.14,-0.11 4.31,0.15 5.06,-0.14 0.28,-0.11 1.13,-1.03 1.39,-1.3 1.73,-1.72 1.2,-0.94 1.2,-6.68 0,-0.68 -2.14,-2.88 -2.69,-2.88l-8.26 0 0 17.69zm64.38 -14.99l0 5c0,0.68 2.18,2.88 2.69,2.88l4.8 0 0 3.84 -4.23 0 0 -2.69 -3.27 0c0,3.91 -0.34,3.12 1.25,4.71 1.77,1.78 1.1,1.25 6.63,1.25 0.62,0 2.88,-2.27 2.88,-2.88 0,-5.49 0.49,-4.61 -1.2,-6.3 -1.69,-1.69 -0.81,-1.2 -6.29,-1.2l0 -4.04 4.23 0 0 2.69 3.27 0c0,-4.14 0.34,-3.21 -1.2,-4.76 -1.75,-1.75 -0.98,-1.2 -6.87,-1.2 -0.48,0 -2.69,2.21 -2.69,2.69zm-53.66 14.99l3.31 0c0.03,-0.68 0.57,-2.65 0.77,-3.08l4.42 0 0.77 3.08 3.27 0 -3.34 -13.19c-0.2,-0.81 -0.34,-1.36 -0.54,-2.15 -0.15,-0.61 -0.5,-1.57 -0.54,-2.35l-3.46 0c-0.1,0.71 -0.39,1.57 -0.54,2.15l-4.11 15.54zm33.87 -36.86c0.12,-2.84 4.42,-9.93 2.31,-15.05 -0.49,-1.2 -1.15,-1.78 -2.11,-2.5 -0.52,-0.39 -0.5,-0.51 -1.16,-0.56 -0.64,1.14 -0.6,1.51 -1.35,2.49 -1.7,2.23 -4.36,1.83 -4.36,3.25 -0,0.77 1.1,1.85 1.6,2.21 3.3,2.34 5.23,-0.38 5.08,6.46 -0.03,1.37 -0.4,3.02 -0,3.7zm-16.53 -12.54c0,5.42 1.78,7.9 2.77,11.45l0.3 1.05c0.16,0.4 0.08,0.21 0.2,0.41 0.01,-2.31 -0.86,-5.32 -0.4,-7.17 0.79,-3.2 5.6,-2 6.6,-5.14 0.41,-1.28 -0.9,-1.58 -1.8,-1.94 -1.6,-0.63 -2.83,-1.92 -3.47,-3.44l-0.29 -0.69c-0.01,-0.03 -0.04,-0.09 -0.07,-0.14 -1.88,0.57 -3.84,3.1 -3.84,5.61zm-4.42 -19.8l1.92 2.1c7.91,-3.98 7.55,-0.98 11.91,-0.94 2.85,0.02 3.79,-0.98 6.73,-0.98 2.6,-0 3.7,1.11 5.75,1.87 0.68,-0.64 1.4,-1.33 1.99,-2.04 -0.54,-0.29 -0.13,-0.08 -0.78,-0.24l-2.37 -0.51c-1.1,-0.22 -2.39,-0.42 -3.48,-0.56 -1.89,-0.23 -4.07,-0.38 -6.36,-0.42l-2.83 0c-4.13,0.08 -8.35,0.51 -11.66,1.41l-0.84 0.32zm30.94 65.36c0,0.93 0.82,0.58 3.84,0.58 0.55,0 0.58,-0.03 0.58,-0.58l0 -10.57 -4.42 0 0 10.57zm-8.7 0.53l0.05 -11.1 -4.37 0.01c-0.24,2.55 -0.01,6.71 -0.06,9.61 -0.02,0.91 -0.18,1.27 0.43,1.49 0.3,0.11 3.47,0.03 3.96,-0.02zm5.43 -61.85c0.45,0.63 1.8,1.54 2.5,1.92 0.24,-0.82 0.18,-0.74 0.58,-1.34 2.29,-0.18 1.67,0.41 3.07,0.77 -0.19,-0.57 -0.37,-1.16 -0.68,-1.64 1.74,-0.5 2.99,-0.43 4.47,1.31 1.68,1.98 1.14,4.03 0.79,6.35 1.85,-1.62 1.32,-7.28 -1.87,-9.7 -3.43,-2.6 -7.44,-0.62 -8.87,2.33zm-38.82 3.08c0,1.6 -0.15,2.08 0.49,3.55 0.02,0.06 0.11,0.23 0.13,0.28l0.15 0.27c0.24,-0.53 -0.19,-1.41 -0.19,-2.56 0,-2.58 1.74,-5.19 4.42,-5.19 0.62,0 0.75,0.14 1.31,0.23 -0.35,0.63 -0.48,0.84 -0.65,1.77 1.59,-0.53 2.75,-2.3 3.56,0.51l2.47 -1.76c-0.39,-1.98 -3.28,-3.63 -4.59,-3.63 -2.33,0 -3.74,0.28 -5.32,2.17 -0.78,0.93 -1.79,2.85 -1.79,4.36zm31.71 32.85c-0.98,0.61 -0.28,2.1 -2.02,4.16 -1.9,2.23 -6.21,2.67 -8.69,0.05 -1.59,-1.68 -1.05,-2.71 -1.97,-4.12 -1.06,1.47 1.53,8.93 6.15,8.96 3.98,0.03 6.53,-4.54 6.53,-9.05zm-1.81 25.28l3.03 -0 -0.01 -9.65 -2.91 -0.01 -0.1 9.66zm13.14 -0.07l2.69 0 -0.01 -9.54 -2.61 0 -0.08 9.54zm-47.9 -6.01l0.05 -4.37 -4.38 0.01c-0.09,0.94 -0.41,3.71 0.12,4.24 0.53,0.53 3.3,0.21 4.2,0.12zm20.99 -0.72l0.04 0.72 3.81 0.05c0.89,-0 0.63,-1.41 0.58,-3.65l-0.04 -0.72 -4.38 -0.05 0 3.65zm19.56 -7.5l2.15 2.28c0.49,-0.26 2.5,-2.08 2.5,-2.85l0 -2.5c0,-0.48 -0.17,-0.65 -0.19,-1.36 -0.47,0.16 -1.8,1.66 -2.27,2.17 -0.67,0.73 -1.67,1.61 -2.2,2.27zm-15.44 -26.63c0.15,1.31 0.23,2.84 1.07,3.57 0,-0.56 -0.05,-1.14 0.05,-1.68 0.3,-1.67 1.58,-1.13 1.94,-1.18 0.74,-0.11 -0.28,-0.2 0.63,-0.08 0.84,0.1 -0.08,0.16 0.66,0.16 0.95,0 -0.19,-0.01 0.5,-0.12 1.2,-0.2 -0.58,0.24 1.49,-0 0.23,-0.03 0.21,0 0.35,0.02 0.05,0.01 0.19,0.05 0.24,0.06l1.1 0.07c0.36,0.15 0.04,0.05 0.32,0.13 0.09,0.02 0.21,-0.05 0.58,0.08l0.04 2.71c0.69,-1.12 0.96,-2.25 1.08,-3.74 -3.83,-0.78 -6.16,-1.17 -10.05,0.03zm0.87 19.14c3.22,1.59 5.03,1.61 8.26,0.01 -0.04,-1.03 -0.26,-1.98 -0.9,-2.45l-0.09 1.48 -2.14 0.36c-0.68,-0.06 0.39,-0.09 -0.47,-0.05l-2.32 -0.02c-1.41,-0.16 -1.35,0.03 -1.39,-1.81 -0.67,0.45 -0.87,1.41 -0.95,2.49zm-4.12 15.06l2.86 0 -0.04 -2.93 -2.71 0 -0.11 2.93zm-25.29 -0.07l2.82 -0.02c-0,-3.38 0.59,-2.79 -2.74,-2.79l-0.08 2.81zm11.54 4.42l2.5 0c-0.01,-0.84 -0.58,-2.74 -0.83,-3.77 -0.22,-0.89 0.03,-0.59 -0.51,-1.11 -0.23,1.52 -1.13,3.39 -1.15,4.89zm52.76 -4.91l2.74 0.08 0.04 -0.74 -0.01 -0.96 -0.05 -0.7c-2.84,0 -2.97,-0.66 -2.73,2.33zm-0.03 7.15l0.7 0.08 2.12 -0.01 0 -2.31 -2.81 0.02 0 2.22z"/>
 </g>
</svg>
